<?xml version="1.0" standalone="no"?><!DOCTYPE svg PUBLIC "-//W3C//DTD SVG 1.1//EN" "http://www.w3.org/Graphics/SVG/1.1/DTD/svg11.dtd"><svg t="1720775105622" class="icon" viewBox="0 0 1024 1024" version="1.1" xmlns="http://www.w3.org/2000/svg" p-id="1712" xmlns:xlink="http://www.w3.org/1999/xlink" width="200" height="200"><path d="M62.86 510.75a448.47 448.47 0 1 0 896.94 0 448.47 448.47 0 1 0-896.94 0z" fill="#9BEAEA" p-id="1713"></path><path d="M297.29 616.84s-77.19-103.5-78.76-141.6-19.57-208.71 4.7-235.32 79.83 24.87 79.83 24.87l149.3 137.92-155.07 214.13z" fill="#F4BD6C" p-id="1714"></path><path d="M305.84 586.14s-57.91-77.4-59.09-105.89c-1.17-28.49-14.68-156.08 3.52-175.98 18.2-19.9 59.89 18.6 59.89 18.6L422.17 426 305.84 586.14z" fill="#FFDDB0" p-id="1715"></path><path d="M725.37 616.84s77.19-103.5 78.76-141.6c1.57-38.1 19.57-208.71-4.7-235.32s-79.83 24.87-79.83 24.87L570.3 402.71l155.07 214.13z" fill="#F4BD6C" p-id="1716"></path><path d="M716.83 586.14s57.91-77.4 59.09-105.89c1.17-28.49 14.68-156.08-3.52-175.98-18.2-19.9-59.89 18.6-59.89 18.6L600.49 426l116.34 160.14z" fill="#FFDDB0" p-id="1717"></path><path d="M517.01 383.07c-2.03 0-4 0.1-5.93 0.28-1.93-0.18-3.9-0.28-5.92-0.28-133.03 0-235.55 96.11-212.86 213.92 16.32 84.75 101.48 184.51 200.88 191.96 3.96 0.3 7.96 0.25 11.98 0.25 1.98 0 3.96-0.02 5.92-0.06 1.97 0.04 3.94 0.06 5.93 0.06 4.02 0 8.02 0.05 11.98-0.25 99.4-7.45 184.55-107.21 200.88-191.96 22.69-117.81-79.83-213.92-212.86-213.92z" fill="#F4BD6C" p-id="1718"></path><path d="M592.62 566.71a51.57 51.57 0 1 0 103.14 0 51.57 51.57 0 1 0-103.14 0z" fill="#FFFFFF" p-id="1719"></path><path d="M484.33 639.16c0.01-8.26 55.69-6.98 55.86-0.01 0.32 13.04-18.55 31.5-28.31 31.54-9.71 0.05-27.56-17.25-27.55-31.53z" fill="#6D1009" p-id="1720"></path><path d="M480.62 731.02l-2.23-2 31-34.4v-26.17h3v27.32z" fill="#6D1009" p-id="1721"></path><path d="M541.56 731.03l-32.17-35.26 0.39-27.34 3 0.04-0.38 26.15 31.38 34.39z" fill="#6D1009" p-id="1722"></path><path d="M323.83 565.26a51.57 51.57 0 1 0 103.14 0 51.57 51.57 0 1 0-103.14 0z" fill="#FFFFFF" p-id="1723"></path><path d="M339.65 565.26a35.75 35.75 0 1 0 71.5 0 35.75 35.75 0 1 0-71.5 0z" fill="#DEA614" p-id="1724"></path><path d="M375.4 551.52a12.29 12.29 0 1 0 24.58 0 12.29 12.29 0 1 0-24.58 0zM589.64 565.26a51.57 51.57 0 1 0 103.14 0 51.57 51.57 0 1 0-103.14 0z" fill="#FFFFFF" p-id="1725"></path><path d="M605.46 565.26a35.75 35.75 0 1 0 71.5 0 35.75 35.75 0 1 0-71.5 0z" fill="#DEA614" p-id="1726"></path><path d="M643.31 551.52a12.29 12.29 0 1 0 24.58 0 12.29 12.29 0 1 0-24.58 0z" fill="#FFFFFF" p-id="1727"></path></svg>