<?xml version="1.0" standalone="no"?><!DOCTYPE svg PUBLIC "-//W3C//DTD SVG 1.1//EN" "http://www.w3.org/Graphics/SVG/1.1/DTD/svg11.dtd"><svg t="1720775279836" class="icon" viewBox="0 0 1024 1024" version="1.1" xmlns="http://www.w3.org/2000/svg" p-id="2759" xmlns:xlink="http://www.w3.org/1999/xlink" width="200" height="200"><path d="M285.696 393.216a340.224 340.224 0 0 0-44.8 12.032c-70.144 25.6-42.752 106.24 1.28 91.136 11.264-3.84 43.52-17.408 43.52-17.408v252.416a48.128 48.128 0 0 0 96.256 0v-115.712h132.608l-222.72-222.464zM661.504 762.368l-84.48-84.48v53.504a48.128 48.128 0 0 0 84.48 30.976zM672.768 495.616l128-17.408c22.016 0 35.84-30.208 11.776-55.04l-102.4-102.4s38.4-75.52 0-75.52L563.2 393.216h-67.84l177.408 177.408z" fill="#030000" p-id="2760"></path><path d="M867.328 156.928A502.272 502.272 0 1 0 512 1014.272 502.272 502.272 0 0 0 867.328 156.928zM512 902.4A390.144 390.144 0 0 1 197.888 281.6l112.896 112.64 358.4 358.4 75.008 75.008A388.608 388.608 0 0 1 512 902.4z m314.112-158.72L281.6 197.888a390.4 390.4 0 0 1 544.512 545.792z" fill="#030000" p-id="2761"></path></svg>