<?xml version="1.0" standalone="no"?><!DOCTYPE svg PUBLIC "-//W3C//DTD SVG 1.1//EN" "http://www.w3.org/Graphics/SVG/1.1/DTD/svg11.dtd"><svg t="1720775724701" class="icon" viewBox="0 0 1024 1024" version="1.1" xmlns="http://www.w3.org/2000/svg" p-id="9975" xmlns:xlink="http://www.w3.org/1999/xlink" width="200" height="200"><path d="M495.9 375.3c-85.6 0-155.2-69.6-155.2-155.2S410.3 64.9 495.9 64.9s155.2 69.6 155.2 155.2-69.6 155.2-155.2 155.2z m0-271.6c-64.2 0-116.4 52.2-116.4 116.4s52.2 116.4 116.4 116.4 116.4-52.2 116.4-116.4-52.2-116.4-116.4-116.4z" fill="#007AFF" p-id="9976"></path><path d="M497.5 860.5c-10.7 0-23.4-8.7-23.4-19.4V355.9c0-10.7 12.7-19.4 23.4-19.4s23.4 8.7 23.4 19.4V841c0 10.8-12.7 19.5-23.4 19.5zM495.9 321C440.2 321 395 275.7 395 220.1c0-10.7 8.7-19.4 19.4-19.4s19.4 8.7 19.4 19.4c0 34.2 27.9 62.1 62.1 62.1 10.7 0 19.4 8.7 19.4 19.4s-8.7 19.4-19.4 19.4z" fill="#007AFF" p-id="9977"></path><path d="M495.9 957.5c-136.9 0-368.7-20.4-368.7-97 0-78.4 241.6-94.6 290.1-97 10.7-0.6 19.8 7.7 20.4 18.4 0.5 10.7-7.7 19.8-18.4 20.3-168.3 8.5-249.2 42.9-253.3 58.5 5.8 19.8 124.1 57.9 329.9 57.9 205.8 0 324.1-38.1 329.9-58.6-3.1-10.3-64.3-44-234.1-54.9-10.7-0.7-18.8-9.9-18.1-20.6 0.7-10.7 9.9-18.8 20.6-18.1 81.3 5.2 270.4 24.8 270.4 94 0 76.7-231.8 97.1-368.7 97.1z" fill="#007AFF" p-id="9978"></path></svg>